# xmcd CD database file
#
# Track frame offsets:
#	150
#	12241
#	25891
#	40476
#	50100
#	63388
#	78363
#	91304
#	104327
#	117378
#	131739
#	146908
#	161158
#	177512
#	193768
#	204479
#	220414
#	236155
#	248246
#	262468
#	279463
#	291652
#	305512
#	321545
#	332061
#
# Disc length: 4545 seconds
#
# Revision: 0
# Processed by: cddbd v1.5.1PL0 Copyright (c) Steve Scherf et al.
# Submitted via: CDex 1.51
#
DISCID=9e11bf19
DTITLE=George Strait - 25 #1 Hits
DYEAR=1900
DGENRE=Country
TTITLE0=Fool Hearted Memory
TTITLE1=A Fire I Can't Put Out
TTITLE2=You Look So Good In Love
TTITLE3=Right or Wrong
TTITLE4=Let's Fall To Pieces Together
TTITLE5=Does Ft. Worth Ever Cross Your
TTITLE6=The Chair
TTITLE7=Nobody In His Right Mind
TTITLE8=It Ain't Cool
TTITLE9=Ocean Front Property
TTITLE10=All My Ex's Live In Texas
TTITLE11=Am I Blue
TTITLE12=Famous Last Words Of A Fool
TTITLE13=Baby Blue
TTITLE14=If You Ain't Lovin' (Then You
TTITLE15=Baby's Gotten Good at Goodbyes
TTITLE16=What's Goin On In Your World
TTITLE17=Ace In The Hole
TTITLE18=Love Without End, Amen
TTITLE19=I've Come To Expect It From You
TTITLE20=If I Know Me
TTITLE21=You Know Me Better Than That
TTITLE22=I Cross My Heart
TTITLE23=Heartland
TTITLE24=Easy Come, Easy Go
EXTD=
EXTT0=
EXTT1=
EXTT2=
EXTT3=
EXTT4=
EXTT5=
EXTT6=
EXTT7=
EXTT8=
EXTT9=
EXTT10=
EXTT11=
EXTT12=
EXTT13=
EXTT14=
EXTT15=
EXTT16=
EXTT17=
EXTT18=
EXTT19=
EXTT20=
EXTT21=
EXTT22=
EXTT23=
EXTT24=
PLAYORDER=
